<svg xmlns="http://www.w3.org/2000/svg" xmlns:xlink="http://www.w3.org/1999/xlink" version="1.1" id="Layer_1" x="0px" y="0px" width="100%" viewBox="0 0 1282 321" enable-background="new 0 0 1282 321" xml:space="preserve">
<path fill="transparent" opacity="1.000000" stroke="none" d=" M865.000000,322.000000   C576.666687,322.000000 288.833344,322.000000 1.000000,322.000000   C1.000000,215.000000 1.000000,108.000000 1.000000,1.000000   C428.333344,1.000000 855.666687,1.000000 1283.000000,1.000000   C1283.000000,108.000000 1283.000000,215.000000 1283.000000,322.000000   C1143.833374,322.000000 1004.666687,322.000000 865.000000,322.000000  M199.702042,19.206240   C188.386368,25.218613 177.203629,31.501341 165.710098,37.151943   C157.527435,41.174805 149.003632,44.548641 140.477356,47.807335   C136.618362,49.282223 132.383591,49.773876 128.319290,50.711586   C137.991501,52.825500 147.256943,50.946835 155.986725,47.558887   C171.323853,41.606712 186.319244,34.779007 201.511749,28.447544   C214.051392,23.221663 226.942017,19.569836 240.746063,20.074739   C264.579803,20.946489 280.387756,33.728065 285.238892,56.795345   C288.745697,73.470306 287.435211,90.330269 285.598206,107.061386   C282.648254,133.929077 276.394226,160.152374 268.912109,186.078064   C259.544434,218.537231 249.527832,250.808807 234.504013,281.184052   C230.649323,288.977539 224.917313,295.889984 219.643860,302.903534   C218.174973,304.857086 215.413910,306.192139 212.976852,306.991180   C207.897583,308.656586 204.024734,306.669250 201.346344,300.265747   C195.638123,286.618439 190.477814,272.742950 184.994583,259.000244   C180.055237,246.620651 174.981400,234.284882 166.002655,224.107086   C156.718292,213.582901 145.521606,213.065720 135.683960,222.946304   C132.423172,226.221344 129.008972,229.783295 127.097054,233.882095   C120.435997,248.162277 114.373444,262.722656 108.141205,277.201416   C104.596123,285.437378 101.758820,294.043854 97.511505,301.892975   C93.331062,309.618561 86.658218,310.047699 80.922195,303.384247   C76.823425,298.622803 72.997215,293.409393 70.126595,287.842224   C45.881302,240.821732 28.761759,191.295319 19.038277,139.280838   C14.594001,115.506775 11.122808,91.531349 13.060284,67.280838   C15.507390,36.651497 33.066452,18.955015 64.939224,19.505453   C81.145683,19.785337 96.395653,24.688486 111.936729,28.278141   C122.533195,30.725697 133.171722,32.901978 144.214874,31.429367   C142.656006,30.534550 141.019989,30.024271 139.372650,29.553616   C129.627258,26.769293 119.772781,24.316587 110.156792,21.141256   C95.305244,16.237074 80.661278,10.609543 64.875305,9.437977   C44.296276,7.910692 26.191502,12.916882 14.679197,31.398792   C10.283574,38.455547 7.176358,46.672478 5.148368,54.777634   C-0.374753,76.851593 1.334404,99.275597 5.425621,121.257843   C15.193380,173.740387 30.046553,224.782410 51.856190,273.635010   C57.575142,286.445221 64.163719,298.869568 74.267311,308.838928   C87.235329,321.634705 98.384407,319.618469 106.531372,303.436951   C107.502953,301.507202 108.441780,299.550903 109.237137,297.544037   C113.893585,285.794952 117.998360,273.794739 123.277367,262.334442   C128.052948,251.966980 133.182907,241.526321 139.818420,232.315079   C147.231857,222.023956 156.239014,223.304443 162.789871,234.117371   C163.565872,235.398270 164.397522,236.668625 164.983505,238.037949   C172.367294,255.292297 179.674500,272.579468 187.083771,289.822815   C189.698318,295.907593 191.744934,302.440002 195.436646,307.816437   C203.373840,319.375793 215.219879,320.039764 225.199677,310.316895   C233.813553,301.924744 239.868347,291.739777 244.725937,280.937958   C271.425110,221.566818 290.789185,160.048889 297.525177,95.029602   C299.123566,79.601158 298.794739,64.077232 294.074768,48.985294   C286.770660,25.630732 270.067230,11.408371 246.712982,9.184643   C230.319061,7.623657 215.031082,11.851272 199.702042,19.206240  M640.399841,198.672974   C648.525696,199.028763 656.651611,199.384552 664.777466,199.740341   C657.419739,195.689316 656.148071,193.792297 656.144592,185.614426   C656.134827,162.781631 656.140869,139.948837 656.140747,117.116035   C656.140686,112.707809 656.140747,108.299583 656.140747,102.368568   C657.690979,105.060455 658.525269,106.402672 659.258484,107.798012   C672.795288,133.560791 686.287231,159.347275 699.924988,185.056473   C700.784363,186.676529 702.734863,188.683075 704.225464,188.722839   C705.627197,188.760239 707.645203,186.707108 708.446655,185.101746   C721.740295,158.473373 734.880981,131.768646 748.074829,105.090378   C748.686035,103.854546 749.474976,102.706589 749.991028,101.837738   C749.991028,114.445007 749.888306,127.061340 750.018677,139.675262   C750.159424,153.294495 750.476013,166.912460 750.797852,180.529053   C750.986572,188.512558 751.167480,196.410767 741.533752,199.586288   C751.928101,199.586288 762.322449,199.586288 772.716797,199.586288   C765.059021,196.754837 763.733398,190.799377 763.755554,183.800262   C763.842468,156.309769 763.833740,128.818680 763.753906,101.328133   C763.734314,94.578217 765.139893,88.872841 772.615295,86.367897   C766.574646,86.021278 760.809692,86.179329 755.059814,85.952721   C752.301392,85.844009 750.995544,86.882919 749.799500,89.273514   C736.857300,115.140732 723.799194,140.949966 710.756714,166.766953   C709.968018,168.328308 709.043091,169.820892 707.888977,171.863190   C706.700989,169.715836 705.811035,168.177124 704.985474,166.604645   C691.534180,140.983948 678.117615,115.344902 664.579346,89.770279   C663.775146,88.251015 662.069336,86.249115 660.679688,86.164246   C654.336792,85.776848 647.957031,85.994186 641.590454,85.994186   C648.774658,88.178581 650.312439,92.804451 650.222717,99.752823   C649.850403,128.580658 650.071533,157.416107 650.063965,186.248764   C650.061951,194.047852 648.403748,196.193924 640.399841,198.672974  M468.498810,197.119858   C463.690674,194.765640 463.006256,190.400314 463.007812,185.743347   C463.013916,167.389786 463.051910,149.036224 463.065735,130.682663   C463.072266,122.020569 463.102264,113.358009 463.026459,104.696495   C462.960907,97.207001 462.304962,89.514122 471.362427,86.130066   C461.117493,86.130066 450.872589,86.130066 440.627686,86.130066   C448.434357,88.455475 450.245209,94.306343 450.072388,101.496895   C449.944366,106.824371 450.044922,112.157341 450.044495,117.487869   C450.043976,124.249336 450.044342,131.010803 450.044342,137.687805   C425.997223,137.687805 402.602966,137.687805 378.896912,137.687805   C378.896912,125.243042 378.876465,113.105148 378.903809,100.967354   C378.923279,92.327797 380.832825,89.415192 388.365173,86.296318   C378.082611,86.296318 367.800018,86.296318 357.517456,86.296318   C364.903564,89.095078 366.105682,94.978622 365.921021,101.720657   C365.566833,114.656364 365.059814,127.594536 365.063751,140.531555   C365.067810,153.968491 365.633667,167.404633 365.890717,180.842346   C366.034668,188.370316 366.749390,196.226166 357.294525,199.660477   C367.688568,199.660477 378.082611,199.660477 388.882782,199.660477   C381.298309,195.433746 379.230652,193.699127 379.131561,188.627625   C378.843170,173.868149 379.029236,159.099396 379.029236,144.277557   C402.913208,144.277557 426.302429,144.277557 449.998016,144.277557   C449.998016,155.014465 449.997955,165.479294 449.997986,175.944138   C449.998016,178.609406 449.888031,181.280106 450.019470,183.938889   C450.385895,191.351746 448.024567,197.083633 440.583710,199.713257   C450.941101,199.713257 461.298492,199.713257 473.046661,199.713257   C470.942474,198.562912 470.030548,198.064362 468.498810,197.119858  M1042.119751,93.570816   C1041.144287,94.207069 1040.162231,94.833313 1039.194458,95.481018   C1008.717651,115.878815 1005.729675,161.323517 1033.385254,185.413177   C1047.790405,197.960953 1065.156250,201.618683 1083.626221,200.911606   C1116.691650,199.645782 1141.897949,179.983826 1144.497192,148.651062   C1146.275879,127.211281 1139.919922,108.676422 1121.536011,96.601028   C1096.290771,80.018845 1069.607910,80.501518 1042.119751,93.570816  M1203.755615,129.751236   C1224.128784,152.205276 1244.557007,174.609863 1264.807495,197.173981   C1267.424805,200.090347 1269.994629,200.905029 1273.815430,199.681000   C1273.815430,198.048386 1273.815552,196.415283 1273.815430,194.782196   C1273.813843,164.130325 1273.883301,133.478134 1273.754639,102.826797   C1273.726685,96.189697 1273.606079,89.847481 1282.856934,87.260071   C1273.635254,87.260071 1266.012817,87.260071 1257.347778,87.260071   C1266.661743,90.845146 1267.681519,92.325256 1267.682739,101.207596   C1267.686035,124.532227 1267.672241,171.181473 1267.672241,171.181473   C1267.670898,172.889481 1267.504272,174.597351 1267.414429,176.305267   C1266.924683,176.551498 1266.434814,176.797729 1265.945068,177.043945   C1264.766724,175.501816 1263.708984,173.847366 1262.392212,172.434219   C1236.724854,144.889191 1211.038818,117.361565 1185.298706,89.884560   C1184.143066,88.651093 1182.477905,87.171738 1180.988037,87.100052   C1174.592041,86.792351 1168.172607,86.968758 1160.461548,86.968758   C1163.085938,88.137817 1164.918823,88.414673 1165.857788,89.479691   C1168.150146,92.079582 1171.767090,95.020142 1171.806519,97.865723   C1172.231079,128.514954 1172.079224,159.172348 1172.045654,189.827469   C1172.041260,193.948975 1169.919434,196.688049 1166.063110,198.109009   C1164.858398,198.552933 1163.669312,199.039795 1161.793701,199.772339   C1170.691406,199.772339 1178.659424,199.772339 1187.622559,199.772339   C1179.547485,196.556107 1178.168091,194.526474 1178.164429,186.699417   C1178.151855,160.209305 1178.155029,133.719193 1178.170288,107.229080   C1178.171021,105.828491 1178.338867,104.428001 1178.496826,101.969238   C1187.224976,111.572853 1195.250122,120.402817 1203.755615,129.751236  M588.481384,180.122025   C589.271606,181.771896 590.102417,183.403702 590.844910,185.074768   C594.091431,192.380753 593.219910,194.733475 586.095276,198.298904   C585.679138,198.507187 585.522888,199.235001 585.381531,199.482834   C596.635376,199.482834 607.732788,199.482834 618.830200,199.482834   C610.322632,196.205368 606.920410,189.052078 603.480164,181.726227   C588.926270,150.733856 574.239075,119.804047 559.523132,88.888199   C558.976562,87.739952 557.658630,86.201614 556.643738,86.158058   C550.638611,85.900322 544.616821,86.030975 538.600647,86.030975   C539.108032,87.158585 539.665405,87.420326 540.244019,87.620667   C548.324951,90.418587 550.259644,94.811264 546.700317,102.293571   C534.062134,128.861023 521.352478,155.394897 508.834808,182.019012   C505.473816,189.167587 501.546021,195.484222 493.508423,198.048431   C493.247192,198.131775 493.187012,198.845352 492.917938,199.579300   C502.052094,199.579300 510.929962,199.579300 520.372437,199.579300   C511.126709,192.609680 511.109619,192.547943 515.977844,181.771774   C518.235535,176.774139 520.364258,171.708572 522.879517,166.843445   C523.536560,165.572510 525.414612,164.142715 526.745300,164.129486   C544.728088,163.950760 562.713318,164.009537 580.866455,164.009537   C583.322754,169.234497 585.723633,174.341583 588.481384,180.122025  M879.995422,111.647636   C878.054688,101.523384 871.975037,94.727707 862.844604,90.433022   C854.994141,86.740379 846.672424,85.779182 838.071716,85.907738   C825.358765,86.097740 812.640747,85.956833 799.924927,85.956833   C807.266907,88.540100 807.847961,94.109673 807.809082,100.527328   C807.642090,128.157532 807.730042,155.789337 807.743408,183.420547   C807.746521,189.815704 808.931396,196.739670 800.317078,198.993546   C810.056396,198.993546 819.795776,198.993546 829.535095,198.993546   C825.249634,197.632492 821.181213,196.153915 821.110840,190.955963   C820.930847,177.663116 821.050842,152.083969 821.050842,152.083969   C829.502625,152.083969 837.604431,152.329102 845.686890,152.037766   C869.394897,151.183182 883.778320,134.538818 879.995422,111.647636  M957.958130,199.445068   C959.222351,199.344574 960.486572,199.244064 961.750793,199.143570   C956.674683,197.248199 953.777466,194.450989 953.818726,188.559265   C954.035828,157.587311 953.973755,126.613396 954.008179,95.640160   C954.009949,94.040657 954.008301,92.441162 954.008301,90.682564   C963.990173,90.682564 973.312622,90.598244 982.632690,90.711235   C989.208862,90.790955 993.427917,94.425194 995.969727,100.259941   C996.495300,101.466423 996.945923,102.705574 997.791382,104.838928   C997.791382,97.942268 997.791382,92.205460 997.791382,86.216827   C964.302185,86.216827 931.232849,86.216827 897.593506,86.216827   C897.593506,92.042084 897.593506,97.842804 897.593506,104.807816   C898.480896,102.508141 898.916321,101.171013 899.500427,99.902298   C901.893433,94.704720 905.695923,91.001793 911.595764,90.824219   C921.214172,90.534744 930.847656,90.746063 940.991699,90.746063   C940.991699,92.790031 940.991638,94.576729 940.991638,96.363434   C940.991638,124.506668 940.834290,152.651337 941.091736,180.792221   C941.165039,188.802963 941.170105,196.153946 931.724854,199.444901   C940.175598,199.444901 948.626282,199.444901 957.958130,199.445068  M110.520805,178.973831   C123.651321,184.232468 137.226471,187.215958 151.430023,186.539948   C178.762497,185.239075 202.112610,173.796844 223.547150,157.737167   C229.306458,153.422058 234.704224,148.624405 240.267960,144.048279   C239.956329,143.607147 239.644699,143.166031 239.333084,142.724915   C238.001160,143.483292 236.681915,144.265015 235.335388,144.996506   C220.300842,153.164017 205.740677,162.419434 190.118591,169.243195   C162.851822,181.153381 134.679031,182.037735 107.258896,169.578232   C92.926987,163.065933 79.519287,154.521545 65.680176,146.920441   C64.012886,146.004684 62.257847,145.248703 60.543472,144.418671   C75.072411,158.797272 91.185204,170.601852 110.520805,178.973831  M670.035217,264.927307   C672.122620,265.600861 674.209961,266.274414 676.751282,267.094421   C676.751282,254.705276 676.751282,243.463913 676.751282,232.361816   C672.357300,230.915604 670.135132,232.830017 668.256042,236.414337   C665.307495,242.038589 661.874329,247.408722 658.303589,253.468140   C654.545837,247.200455 651.009705,241.768356 647.972961,236.070068   C646.014954,232.395950 643.664246,230.891281 639.463867,232.549393   C639.463867,243.591171 639.463867,254.679123 639.463867,266.012573   C641.863281,266.012573 644.036987,266.012573 646.689087,266.012573   C646.689087,259.868317 646.689087,254.160873 646.689087,248.453415   C650.128174,252.197357 652.510681,256.292816 655.068542,260.275665   C657.315796,263.774780 659.075439,263.777863 661.294983,260.304688   C664.007019,256.060883 666.565857,251.719131 669.190918,247.419739   C669.467529,247.519775 669.744080,247.619827 670.020691,247.719879   C670.020691,253.157822 670.020691,258.595764 670.035217,264.927307  M862.087097,261.613617   C867.533875,256.637634 868.193237,250.341278 866.453125,243.750656   C864.703735,237.124634 859.726868,233.255402 853.215942,232.528534   C846.736511,231.805161 840.113281,232.370041 833.487793,232.370041   C833.487793,243.758667 833.487793,254.819092 833.487793,266.456390   C838.542847,266.456390 843.412842,267.023132 848.081177,266.295624   C852.672058,265.580231 857.058350,263.551453 862.087097,261.613617  M934.044861,231.982330   C932.789734,232.065308 931.534607,232.148270 930.303467,232.229660   C930.303467,243.722260 930.303467,254.798660 930.303467,266.000610   C932.635254,266.000610 934.695923,266.000610 937.418274,266.000610   C937.418274,259.238617 937.418274,252.759888 937.418274,244.998947   C942.961304,251.746155 947.795959,257.219971 952.127747,263.066376   C954.521423,266.296967 957.108154,266.925659 960.735352,265.809998   C960.735352,254.619095 960.735352,243.546432 960.735352,232.379822   C958.305908,232.379822 956.121826,232.379822 953.456299,232.379822   C953.456299,239.253250 953.456299,245.729599 953.456299,253.290710   C949.896851,248.928589 947.166382,245.390106 944.227539,242.034134   C941.216614,238.595810 938.001648,235.336151 934.044861,231.982330  M908.145264,260.063599   C903.205017,260.063599 898.264709,260.063599 893.212280,260.063599   C893.212280,257.136993 893.212280,254.755035 893.212280,251.867950   C898.574646,251.867950 903.640869,251.867950 908.627686,251.867950   C908.627686,249.622223 908.627686,247.894867 908.627686,245.623840   C903.240295,245.623840 898.188354,245.623840 893.303467,245.623840   C893.303467,242.838486 893.303467,240.611130 893.303467,237.865479   C899.415833,237.865479 905.143677,237.865479 910.799866,237.865479   C910.799866,235.715347 910.799866,234.096191 910.799866,232.375580   C902.268250,232.375580 893.937195,232.375580 885.631226,232.375580   C885.631226,243.837860 885.631226,254.887665 885.631226,266.017639   C894.473816,266.017639 902.978516,266.017639 911.483215,266.017639   C911.884888,265.614136 912.286499,265.210602 912.688171,264.807098   C911.476074,263.226532 910.263977,261.645966 908.145264,260.063599  M614.661804,245.795792   C613.148804,242.483917 611.531372,239.214615 610.157471,235.846008   C609.153076,233.383301 608.113586,231.828568 604.884277,231.813019   C601.611877,231.797272 600.679321,233.431686 599.665344,235.876724   C597.889893,240.157730 595.854614,244.330429 593.958984,248.562317   C591.366089,254.351089 588.801880,260.152740 586.225403,265.948883   C586.604492,266.447815 586.983521,266.946747 587.362610,267.445679   C589.850769,266.198273 593.739624,265.526001 594.536926,263.584290   C596.220398,259.484344 598.569397,258.490845 602.466370,258.877777   C604.768738,259.106354 607.204651,258.527313 609.407898,259.045563   C611.140442,259.453156 613.522522,260.657532 614.030212,262.075684   C615.865234,267.201508 619.161438,267.133575 623.588989,265.815186   C620.617432,259.157745 617.790283,252.823807 614.661804,245.795792  M1038.262695,258.916534   C1040.643311,259.012146 1043.425049,258.136475 1044.249146,261.703583   C1045.454590,266.921570 1049.100342,267.119720 1053.857544,265.947296   C1048.956177,255.119507 1044.217529,244.412811 1039.167236,233.855240   C1038.648804,232.771225 1036.230103,232.031845 1034.758057,232.127838   C1033.303833,232.222702 1031.234009,233.235779 1030.639404,234.440704   C1027.264282,241.280075 1024.231079,248.289108 1021.121765,255.258347   C1019.552551,258.775391 1018.068420,262.330322 1016.101440,266.900665   C1019.988403,265.796600 1023.809082,268.190521 1024.989502,263.467438   C1025.998779,259.428833 1028.545776,258.358887 1032.345215,258.879059   C1033.978027,259.102631 1035.666870,258.916473 1038.262695,258.916534  M555.080750,266.409454   C555.671387,265.075378 556.637268,263.778320 556.773254,262.399414   C557.042297,259.670959 556.852661,256.897217 556.852661,253.732224   C562.506897,253.732224 567.437561,253.732224 572.614868,253.732224   C572.614868,251.424606 572.614868,249.555786 572.614868,247.074005   C567.249756,247.074005 562.197754,247.074005 557.296875,247.074005   C557.296875,243.742554 557.296875,241.039413 557.296875,237.962814   C563.330017,237.962814 568.926880,237.962814 574.687744,237.962814   C574.687744,235.842819 574.687744,234.120880 574.687744,232.205750   C566.178772,232.205750 557.946167,232.205750 549.507874,232.205750   C549.507874,243.635910 549.507874,254.814453 549.507874,266.252594   C551.306030,266.335663 552.773804,266.403503 555.080750,266.409454  M785.206848,243.761124   C787.470337,240.006958 789.733887,236.252792 792.031616,232.441879   C786.554810,230.763992 783.717651,232.928711 781.626526,237.226227   C779.965454,240.639969 777.696777,243.757996 775.396851,247.496704   C773.088989,243.718140 770.638245,240.508881 769.054443,236.917328   C766.877991,231.981842 763.471924,231.058655 758.578613,232.441483   C763.434509,243.534668 774.459229,252.040100 771.149841,266.094482   C774.216248,266.094482 776.444397,266.094482 779.263428,266.094482   C777.537537,257.693726 779.968445,250.692245 785.206848,243.761124  M995.682190,256.429810   C995.682190,250.494629 995.682190,244.559464 995.682190,237.998779   C999.726135,237.998779 1003.108398,237.998779 1006.807129,237.998779   C1006.694885,235.612976 1006.613892,233.890045 1006.540161,232.323273   C996.373413,232.323273 986.794800,232.323273 976.992004,232.323273   C977.095032,234.443375 977.179688,236.186157 977.282349,238.300079   C981.050232,238.300079 984.317444,238.300079 988.057251,238.300079   C988.057251,247.764236 988.057251,256.838165 988.057251,266.127625   C990.765564,266.127625 992.986877,266.127625 995.681946,266.127625   C995.681946,262.988434 995.681946,260.195465 995.682190,256.429810  M725.372986,263.912964   C725.969849,264.750488 726.550964,266.303192 727.165955,266.316772   C734.732788,266.483673 742.304504,266.425507 749.906189,266.425507   C749.906189,263.961823 749.906189,262.205872 749.906189,259.991516   C744.250366,259.991516 738.833069,259.991516 732.918030,259.991516   C732.918030,250.483032 732.918030,241.421234 732.918030,232.303253   C730.181030,232.303253 727.967712,232.303253 725.364502,232.303253   C725.364502,242.768677 725.364502,252.892548 725.372986,263.912964  M1069.660156,243.513657   C1069.660156,250.948380 1069.660156,258.383118 1069.660156,265.935852   C1078.161987,265.935852 1086.034668,265.935852 1094.193115,265.935852   C1094.097290,263.814850 1094.019043,262.081390 1093.920410,259.897034   C1088.092896,259.897034 1082.680176,259.897034 1076.788940,259.897034   C1076.788940,250.362915 1076.788940,241.293625 1076.788940,232.297394   C1074.196167,232.297394 1072.111084,232.297394 1069.659912,232.297394   C1069.659912,235.912964 1069.659912,239.215698 1069.660156,243.513657  M704.991150,242.524689   C704.991150,239.094879 704.991150,235.665070 704.991150,232.288666   C702.283813,232.288666 700.209045,232.288666 698.051758,232.288666   C698.051758,243.657013 698.051758,254.714920 698.051758,266.038055   C700.364990,266.038055 702.426147,266.038055 704.991150,266.038055   C704.991150,258.393799 704.991150,250.956345 704.991150,242.524689  z"/>
<path fill="#11B5B8" opacity="1.000000" stroke="none" d=" M200.046509,19.058231   C215.031082,11.851272 230.319061,7.623657 246.712982,9.184643   C270.067230,11.408371 286.770660,25.630732 294.074768,48.985294   C298.794739,64.077232 299.123566,79.601158 297.525177,95.029602   C290.789185,160.048889 271.425110,221.566818 244.725937,280.937958   C239.868347,291.739777 233.813553,301.924744 225.199677,310.316895   C215.219879,320.039764 203.373840,319.375793 195.436646,307.816437   C191.744934,302.440002 189.698318,295.907593 187.083771,289.822815   C179.674500,272.579468 172.367294,255.292297 164.983505,238.037949   C164.397522,236.668625 163.565872,235.398270 162.789871,234.117371   C156.239014,223.304443 147.231857,222.023956 139.818420,232.315079   C133.182907,241.526321 128.052948,251.966980 123.277367,262.334442   C117.998360,273.794739 113.893585,285.794952 109.237137,297.544037   C108.441780,299.550903 107.502953,301.507202 106.531372,303.436951   C98.384407,319.618469 87.235329,321.634705 74.267311,308.838928   C64.163719,298.869568 57.575142,286.445221 51.856190,273.635010   C30.046553,224.782410 15.193380,173.740387 5.425621,121.257843   C1.334404,99.275597 -0.374753,76.851593 5.148368,54.777634   C7.176358,46.672478 10.283574,38.455547 14.679197,31.398792   C26.191502,12.916882 44.296276,7.910692 64.875305,9.437977   C80.661278,10.609543 95.305244,16.237074 110.156792,21.141256   C119.772781,24.316587 129.627258,26.769293 139.372650,29.553616   C141.019989,30.024271 142.656006,30.534550 144.214874,31.429367   C133.171722,32.901978 122.533195,30.725697 111.936729,28.278141   C96.395653,24.688486 81.145683,19.785337 64.939224,19.505453   C33.066452,18.955015 15.507390,36.651497 13.060284,67.280838   C11.122808,91.531349 14.594001,115.506775 19.038277,139.280838   C28.761759,191.295319 45.881302,240.821732 70.126595,287.842224   C72.997215,293.409393 76.823425,298.622803 80.922195,303.384247   C86.658218,310.047699 93.331062,309.618561 97.511505,301.892975   C101.758820,294.043854 104.596123,285.437378 108.141205,277.201416   C114.373444,262.722656 120.435997,248.162277 127.097054,233.882095   C129.008972,229.783295 132.423172,226.221344 135.683960,222.946304   C145.521606,213.065720 156.718292,213.582901 166.002655,224.107086   C174.981400,234.284882 180.055237,246.620651 184.994583,259.000244   C190.477814,272.742950 195.638123,286.618439 201.346344,300.265747   C204.024734,306.669250 207.897583,308.656586 212.976852,306.991180   C215.413910,306.192139 218.174973,304.857086 219.643860,302.903534   C224.917313,295.889984 230.649323,288.977539 234.504013,281.184052   C249.527832,250.808807 259.544434,218.537231 268.912109,186.078064   C276.394226,160.152374 282.648254,133.929077 285.598206,107.061386   C287.435211,90.330269 288.745697,73.470306 285.238892,56.795345   C280.387756,33.728065 264.579803,20.946489 240.746063,20.074739   C226.942017,19.569836 214.051392,23.221663 201.511749,28.447544   C186.319244,34.779007 171.323853,41.606712 155.986725,47.558887   C147.256943,50.946835 137.991501,52.825500 128.319290,50.711586   C132.383591,49.773876 136.618362,49.282223 140.477356,47.807335   C149.003632,44.548641 157.527435,41.174805 165.710098,37.151943   C177.203629,31.501341 188.386368,25.218613 200.046509,19.058231  z"/>
<path fill="#2D345E" opacity="1.000000" stroke="none" d=" M640.674683,198.424088   C648.403748,196.193924 650.061951,194.047852 650.063965,186.248764   C650.071533,157.416107 649.850403,128.580658 650.222717,99.752823   C650.312439,92.804451 648.774658,88.178581 641.590454,85.994186   C647.957031,85.994186 654.336792,85.776848 660.679688,86.164246   C662.069336,86.249115 663.775146,88.251015 664.579346,89.770279   C678.117615,115.344902 691.534180,140.983948 704.985474,166.604645   C705.811035,168.177124 706.700989,169.715836 707.888977,171.863190   C709.043091,169.820892 709.968018,168.328308 710.756714,166.766953   C723.799194,140.949966 736.857300,115.140732 749.799500,89.273514   C750.995544,86.882919 752.301392,85.844009 755.059814,85.952721   C760.809692,86.179329 766.574646,86.021278 772.615295,86.367897   C765.139893,88.872841 763.753906,101.328133 763.753906,101.328133   C763.833740,128.818680 763.842468,156.309769 763.755554,183.800262   C763.733398,190.799377 765.059021,196.754837 772.716797,199.586288   C762.322449,199.586288 751.928101,199.586288 741.533752,199.586288   C751.167480,196.410767 750.986572,188.512558 750.797852,180.529053   C750.476013,166.912460 750.159424,153.294495 750.018677,139.675262   C749.888306,127.061340 749.991028,114.445007 749.991028,101.837738   C749.474976,102.706589 748.686035,103.854546 748.074829,105.090378   C734.880981,131.768646 721.740295,158.473373 708.446655,185.101746   C707.645203,186.707108 705.627197,188.760239 704.225464,188.722839   C702.734863,188.683075 700.784363,186.676529 699.924988,185.056473   C686.287231,159.347275 672.795288,133.560791 659.258484,107.798012   C658.525269,106.402672 657.690979,105.060455 656.140747,102.368568   C656.140747,108.299583 656.140686,112.707809 656.140747,117.116035   C656.140869,139.948837 656.134827,162.781631 656.144592,185.614426   C656.148071,193.792297 657.419739,195.689316 664.777466,199.740341   C656.651611,199.384552 648.525696,199.028763 640.674683,198.424088  z"/>
<path fill="#2A315B" opacity="1.000000" stroke="none" d=" M468.808716,197.342834   C470.030548,198.064362 470.942474,198.562912 473.046661,199.713257   C461.298492,199.713257 450.941101,199.713257 440.583710,199.713257   C448.024567,197.083633 450.385895,191.351746 450.019470,183.938889   C449.888031,181.280106 449.998016,178.609406 449.997986,175.944138   C449.997955,165.479294 449.998016,155.014465 449.998016,144.277557   C426.302429,144.277557 402.913208,144.277557 379.029236,144.277557   C379.029236,159.099396 378.843170,173.868149 379.131561,188.627625   C379.230652,193.699127 381.298309,195.433746 388.882782,199.660477   C378.082611,199.660477 367.688568,199.660477 357.294525,199.660477   C366.749390,196.226166 366.034668,188.370316 365.890717,180.842346   C365.633667,167.404633 365.067810,153.968491 365.063751,140.531555   C365.059814,127.594536 365.566833,114.656364 365.921021,101.720657   C366.105682,94.978622 364.903564,89.095078 357.517456,86.296318   C367.800018,86.296318 378.082611,86.296318 388.366608,86.298309   C380.832825,89.415192 378.923279,92.327797 378.903809,100.967354   C378.876465,113.105148 378.896912,125.243042 378.896912,137.687805   C402.602966,137.687805 425.997223,137.687805 450.044342,137.687805   C450.044342,131.010803 450.043976,124.249336 450.044495,117.487869   C450.044922,112.157341 449.944366,106.824371 450.072388,101.496895   C450.245209,94.306343 448.434357,88.455475 440.627686,86.130066   C450.872589,86.130066 461.117493,86.130066 471.362427,86.130066   C462.304962,89.514122 462.960907,97.207001 463.026459,104.696495   C463.102264,113.358009 463.072266,122.020569 463.065735,130.682663   C463.051910,149.036224 463.013916,167.389786 463.007812,185.743347   C463.006256,190.400314 463.690674,194.765640 468.808716,197.342834  z"/>
<path fill="#2E355E" opacity="1.000000" stroke="none" d=" M1042.427002,93.367798   C1069.607910,80.501518 1096.290771,80.018845 1121.536011,96.601028   C1139.919922,108.676422 1146.275879,127.211281 1144.497192,148.651062   C1141.897949,179.983826 1116.691650,199.645782 1083.626221,200.911606   C1065.156250,201.618683 1047.790405,197.960953 1033.385254,185.413177   C1005.729675,161.323517 1008.717651,115.878815 1039.194458,95.481018   C1040.162231,94.833313 1041.144287,94.207069 1042.427002,93.367798  M1033.556885,167.731049   C1049.507080,202.816498 1094.229614,201.792221 1113.308472,184.581451   C1123.884521,175.040985 1129.119019,163.135437 1130.498169,149.174469   C1133.378662,120.018082 1118.032959,91.981644 1084.194214,89.324821   C1060.968262,87.501244 1040.018188,98.545540 1032.067017,121.662231   C1026.845703,136.842468 1027.430420,152.055374 1033.556885,167.731049  z"/>
<path fill="#2D345E" opacity="1.000000" stroke="none" d=" M1203.515381,129.492004   C1195.250122,120.402817 1187.224976,111.572853 1178.496826,101.969238   C1178.338867,104.428001 1178.171021,105.828491 1178.170288,107.229080   C1178.155029,133.719193 1178.151855,160.209305 1178.164429,186.699417   C1178.168091,194.526474 1179.547485,196.556107 1187.622559,199.772339   C1178.659424,199.772339 1170.691406,199.772339 1161.793701,199.772339   C1163.669312,199.039795 1164.858398,198.552933 1166.063110,198.109009   C1169.919434,196.688049 1172.041260,193.948975 1172.045654,189.827469   C1172.079224,159.172348 1172.231079,128.514954 1171.806519,97.865723   C1171.767090,95.020142 1165.857788,89.479691 1165.857788,89.479691   C1164.918823,88.414673 1163.085938,88.137817 1160.461548,86.968758   C1168.172607,86.968758 1174.592041,86.792351 1180.988037,87.100052   C1182.477905,87.171738 1184.143066,88.651093 1185.298706,89.884560   C1211.038818,117.361565 1236.724854,144.889191 1262.392212,172.434219   C1263.708984,173.847366 1264.766724,175.501816 1265.945068,177.043945   C1266.434814,176.797729 1266.924683,176.551498 1267.414429,176.305267   C1267.504272,174.597351 1267.672241,171.181473 1267.672241,171.181473   C1267.689453,147.856857 1267.686035,124.532227 1267.682739,101.207596   C1267.681519,92.325256 1266.661743,90.845146 1257.347778,87.260071   C1266.012817,87.260071 1273.635254,87.260071 1282.856934,87.260071   C1273.606079,89.847481 1273.726685,96.189697 1273.754639,102.826797   C1273.883301,133.478134 1273.813843,164.130325 1273.815430,194.782196   C1273.815552,196.415283 1273.815430,198.048386 1273.815430,199.681000   C1269.994629,200.905029 1267.424805,200.090347 1264.807495,197.173981   C1244.557007,174.609863 1224.128784,152.205276 1203.515381,129.492004  z"/>
<path fill="#2C335D" opacity="1.000000" stroke="none" d=" M588.302979,179.785339   C585.723633,174.341583 583.322754,169.234497 580.866455,164.009537   C562.713318,164.009537 544.728088,163.950760 526.745300,164.129486   C525.414612,164.142715 523.536560,165.572510 522.879517,166.843445   C520.364258,171.708572 518.235535,176.774139 515.977844,181.771774   C511.109619,192.547943 511.126709,192.609680 520.372437,199.579300   C510.929962,199.579300 502.052094,199.579300 492.917938,199.579300   C493.187012,198.845352 493.247192,198.131775 493.508423,198.048431   C501.546021,195.484222 505.473816,189.167587 508.834808,182.019012   C521.352478,155.394897 534.062134,128.861023 546.700317,102.293571   C550.259644,94.811264 548.324951,90.418587 540.244019,87.620667   C539.665405,87.420326 539.108032,87.158585 538.600647,86.030975   C544.616821,86.030975 550.638611,85.900322 556.643738,86.158058   C557.658630,86.201614 558.976562,87.739952 559.523132,88.888199   C574.239075,119.804047 588.926270,150.733856 603.480164,181.726227   C606.920410,189.052078 610.322632,196.205368 618.830200,199.482834   C607.732788,199.482834 596.635376,199.482834 585.381531,199.482834   C585.522888,199.235001 585.679138,198.507187 586.095276,198.298904   C593.219910,194.733475 594.091431,192.380753 590.844910,185.074768   C590.102417,183.403702 589.271606,181.771896 588.302979,179.785339  M574.302368,150.185608   C567.038391,134.821075 559.774475,119.456551 552.049377,103.116539   C543.370667,121.970039 535.175964,139.772232 526.864624,157.827667   C544.160461,157.827667 560.756958,157.827667 577.817261,157.827667   C576.684326,155.290649 575.688782,153.061279 574.302368,150.185608  z"/>
<path fill="#2B325C" opacity="1.000000" stroke="none" d=" M880.041016,112.067291   C883.778320,134.538818 869.394897,151.183182 845.686890,152.037766   C837.604431,152.329102 829.502625,152.083969 821.050842,152.083969   C821.050842,164.366241 820.930847,177.663116 821.110840,190.955963   C821.181213,196.153915 825.249634,197.632492 829.535095,198.993546   C819.795776,198.993546 810.056396,198.993546 800.317078,198.993546   C808.931396,196.739670 807.746521,189.815704 807.743408,183.420547   C807.730042,155.789337 807.642090,128.157532 807.809082,100.527328   C807.847961,94.109673 807.266907,88.540100 799.924927,85.956833   C812.640747,85.956833 825.358765,86.097740 838.071716,85.907738   C846.672424,85.779182 854.994141,86.740379 862.844604,90.433022   C871.975037,94.727707 878.054688,101.523384 880.041016,112.067291  M821.043518,128.499283   C821.043518,134.609467 821.043518,140.719666 821.043518,147.969040   C828.601685,147.969040 835.596924,148.488007 842.486511,147.855896   C855.013733,146.706573 863.622925,138.451080 866.414124,125.894485   C869.226685,113.241745 864.355225,100.960152 854.327637,94.446396   C843.914917,87.682457 832.485046,90.864838 821.043518,89.948997   C821.043518,102.901550 821.043518,115.200523 821.043518,128.499283  z"/>
<path fill="#2C335D" opacity="1.000000" stroke="none" d=" M957.517578,199.444977   C948.626282,199.444901 940.175598,199.444901 931.724854,199.444901   C941.170105,196.153946 941.165039,188.802963 941.091736,180.792221   C940.834290,152.651337 940.991638,124.506668 940.991638,96.363434   C940.991638,94.576729 940.991699,92.790031 940.991699,90.746063   C930.847656,90.746063 921.214172,90.534744 911.595764,90.824219   C905.695923,91.001793 901.893433,94.704720 899.500427,99.902298   C898.916321,101.171013 898.480896,102.508141 897.593506,104.807816   C897.593506,97.842804 897.593506,92.042084 897.593506,86.216827   C931.232849,86.216827 964.302185,86.216827 997.791382,86.216827   C997.791382,92.205460 997.791382,97.942268 997.791382,104.838928   C996.945923,102.705574 996.495300,101.466423 995.969727,100.259941   C993.427917,94.425194 989.208862,90.790955 982.632690,90.711235   C973.312622,90.598244 963.990173,90.682564 954.008301,90.682564   C954.008301,92.441162 954.009949,94.040657 954.008179,95.640160   C953.973755,126.613396 954.035828,157.587311 953.818726,188.559265   C953.777466,194.450989 956.674683,197.248199 961.750793,199.143570   C960.486572,199.244064 959.222351,199.344574 957.517578,199.444977  z"/>
<path fill="#16AEB0" opacity="1.000000" stroke="none" d=" M110.160927,178.845978   C91.185204,170.601852 75.072411,158.797272 60.543472,144.418671   C62.257847,145.248703 64.012886,146.004684 65.680176,146.920441   C79.519287,154.521545 92.926987,163.065933 107.258896,169.578232   C134.679031,182.037735 162.851822,181.153381 190.118591,169.243195   C205.740677,162.419434 220.300842,153.164017 235.335388,144.996506   C236.681915,144.265015 238.001160,143.483292 239.333084,142.724915   C239.644699,143.166031 239.956329,143.607147 240.267960,144.048279   C234.704224,148.624405 229.306458,153.422058 223.547150,157.737167   C202.112610,173.796844 178.762497,185.239075 151.430023,186.539948   C137.226471,187.215958 123.651321,184.232468 110.160927,178.845978  z"/>
<path fill="#17AEAF" opacity="1.000000" stroke="none" d=" M670.027954,264.480499   C670.020691,258.595764 670.020691,253.157822 670.020691,247.719879   C669.744080,247.619827 669.467529,247.519775 669.190918,247.419739   C666.565857,251.719131 664.007019,256.060883 661.294983,260.304688   C659.075439,263.777863 657.315796,263.774780 655.068542,260.275665   C652.510681,256.292816 650.128174,252.197357 646.689087,248.453415   C646.689087,254.160873 646.689087,259.868317 646.689087,266.012573   C644.036987,266.012573 641.863281,266.012573 639.463867,266.012573   C639.463867,254.679123 639.463867,243.591171 639.463867,232.549393   C643.664246,230.891281 646.014954,232.395950 647.972961,236.070068   C651.009705,241.768356 654.545837,247.200455 658.303589,253.468140   C661.874329,247.408722 665.307495,242.038589 668.256042,236.414337   C670.135132,232.830017 672.357300,230.915604 676.751282,232.361816   C676.751282,243.463913 676.751282,254.705276 676.751282,267.094421   C674.209961,266.274414 672.122620,265.600861 670.027954,264.480499  z"/>
<path fill="#19AFB1" opacity="1.000000" stroke="none" d=" M861.810730,261.856293   C857.058350,263.551453 852.672058,265.580231 848.081177,266.295624   C843.412842,267.023132 838.542847,266.456390 833.487793,266.456390   C833.487793,254.819092 833.487793,243.758667 833.487793,232.370041   C840.113281,232.370041 846.736511,231.805161 853.215942,232.528534   C859.726868,233.255402 864.703735,237.124634 866.453125,243.750656   C868.193237,250.341278 867.533875,256.637634 861.810730,261.856293  M853.010864,239.039078   C849.151550,238.644897 845.292236,238.250702 841.182617,237.830963   C841.182617,245.699997 841.182617,252.701187 841.182617,259.664124   C852.390076,260.838409 857.109497,259.073059 859.225342,253.072998   C861.197876,247.479202 859.370117,242.851089 853.010864,239.039078  z"/>
<path fill="#12ADAF" opacity="1.000000" stroke="none" d=" M934.460449,231.990326   C938.001648,235.336151 941.216614,238.595810 944.227539,242.034134   C947.166382,245.390106 949.896851,248.928589 953.456299,253.290710   C953.456299,245.729599 953.456299,239.253250 953.456299,232.379822   C956.121826,232.379822 958.305908,232.379822 960.735352,232.379822   C960.735352,243.546432 960.735352,254.619095 960.735352,265.809998   C957.108154,266.925659 954.521423,266.296967 952.127747,263.066376   C947.795959,257.219971 942.961304,251.746155 937.418274,244.998947   C937.418274,252.759888 937.418274,259.238617 937.418274,266.000610   C934.695923,266.000610 932.635254,266.000610 930.303467,266.000610   C930.303467,254.798660 930.303467,243.722260 930.303467,232.229660   C931.534607,232.148270 932.789734,232.065308 934.460449,231.990326  z"/>
<path fill="#18AEB0" opacity="1.000000" stroke="none" d=" M908.598572,260.064514   C910.263977,261.645966 911.476074,263.226532 912.688171,264.807098   C912.286499,265.210602 911.884888,265.614136 911.483215,266.017639   C902.978516,266.017639 894.473816,266.017639 885.631226,266.017639   C885.631226,254.887665 885.631226,243.837860 885.631226,232.375580   C893.937195,232.375580 902.268250,232.375580 910.799866,232.375580   C910.799866,234.096191 910.799866,235.715347 910.799866,237.865479   C905.143677,237.865479 899.415833,237.865479 893.303467,237.865479   C893.303467,240.611130 893.303467,242.838486 893.303467,245.623840   C898.188354,245.623840 903.240295,245.623840 908.627686,245.623840   C908.627686,247.894867 908.627686,249.622223 908.627686,251.867950   C903.640869,251.867950 898.574646,251.867950 893.212280,251.867950   C893.212280,254.755035 893.212280,257.136993 893.212280,260.063599   C898.264709,260.063599 903.205017,260.063599 908.598572,260.064514  z"/>
<path fill="#17AEB0" opacity="1.000000" stroke="none" d=" M614.661804,245.795792   C613.148804,242.483917 611.531372,239.214615 610.157471,235.846008   C609.153076,233.383301 608.113586,231.828568 604.884277,231.813019   C601.611877,231.797272 600.679321,233.431686 599.665344,235.876724   C597.889893,240.157730 595.854614,244.330429 593.958984,248.562317   C591.366089,254.351089 588.801880,260.152740 586.225403,265.948883   C586.604492,266.447815 586.983521,266.946747 587.362610,267.445679   C589.850769,266.198273 593.739624,265.526001 594.536926,263.584290   C596.220398,259.484344 598.569397,258.490845 602.466370,258.877777   C604.768738,259.106354 607.204651,258.527313 609.407898,259.045563   C611.140442,259.453156 613.522522,260.657532 614.030212,262.075684   C615.865234,267.201508 619.161438,267.133575 623.588989,265.815186   C620.617432,259.157745 617.790283,252.823807 614.661804,245.795792  M601.403503,248.060425   C600.874390,249.504608 600.345215,250.948792 599.726440,252.637726   C603.520081,252.637726 606.574280,252.637726 610.263855,252.637726   C608.451416,248.495712 606.845337,244.825485 604.823669,240.205383   C603.523499,243.272812 602.653259,245.325882 601.403503,248.060425  z"/>
<path fill="#15AEB0" opacity="1.000000" stroke="none" d=" M1037.796509,258.916504   C1035.666870,258.916473 1033.978027,259.102631 1032.345215,258.879059   C1028.545776,258.358887 1025.998779,259.428833 1024.989502,263.467438   C1023.809082,268.190521 1019.988403,265.796600 1016.101440,266.900665   C1018.068420,262.330322 1021.121765,255.258347 1021.121765,255.258347   C1024.231079,248.289108 1027.264282,241.280075 1030.639404,234.440704   C1031.234009,233.235779 1033.303833,232.222702 1034.758057,232.127838   C1036.230103,232.031845 1038.648804,232.771225 1039.167236,233.855240   C1044.217529,244.412811 1048.956177,255.119507 1053.857544,265.947296   C1049.100342,267.119720 1045.454590,266.921570 1044.249146,261.703583   C1043.425049,258.136475 1040.643311,259.012146 1037.796509,258.916504  M1032.869019,252.923340   C1035.140747,252.923340 1037.412476,252.923340 1040.621582,252.923340   C1038.656738,248.502487 1037.016968,244.813065 1034.964355,240.194641   C1033.162720,244.395477 1031.756714,247.373062 1030.673828,250.463837   C1030.468018,251.051071 1031.541504,252.086517 1032.869019,252.923340  z"/>
<path fill="#1DB0B2" opacity="1.000000" stroke="none" d=" M554.661133,266.440369   C552.773804,266.403503 551.306030,266.335663 549.507874,266.252594   C549.507874,254.814453 549.507874,243.635910 549.507874,232.205750   C557.946167,232.205750 566.178772,232.205750 574.687744,232.205750   C574.687744,234.120880 574.687744,235.842819 574.687744,237.962814   C568.926880,237.962814 563.330017,237.962814 557.296875,237.962814   C557.296875,241.039413 557.296875,243.742554 557.296875,247.074005   C562.197754,247.074005 567.249756,247.074005 572.614868,247.074005   C572.614868,249.555786 572.614868,251.424606 572.614868,253.732224   C567.437561,253.732224 562.506897,253.732224 556.852661,253.732224   C556.852661,256.897217 557.042297,259.670959 556.773254,262.399414   C556.637268,263.778320 555.671387,265.075378 555.080750,266.409454  M785.206848,243.761124   C787.470337,240.006958 789.733887,236.252792 792.031616,232.441879   C786.554810,230.763992 783.717651,232.928711 781.626526,237.226227   C779.965454,240.639969 777.696777,243.757996 775.396851,247.496704   C773.088989,243.718140 770.638245,240.508881 769.054443,236.917328   C766.877991,231.981842 763.471924,231.058655 758.578613,232.441483   C763.434509,243.534668 774.459229,252.040100 771.149841,266.094482   C774.216248,266.094482 776.444397,266.094482 779.263428,266.094482   C777.537537,257.693726 779.968445,250.692245 785.206848,243.761124  M995.682190,256.429810   C995.682190,250.494629 995.682190,244.559464 995.682190,237.998779   C999.726135,237.998779 1003.108398,237.998779 1006.807129,237.998779   C1006.694885,235.612976 1006.613892,233.890045 1006.540161,232.323273   C996.373413,232.323273 986.794800,232.323273 976.992004,232.323273   C977.095032,234.443375 977.179688,236.186157 977.282349,238.300079   C981.050232,238.300079 984.317444,238.300079 988.057251,238.300079   C988.057251,247.764236 988.057251,256.838165 988.057251,266.127625   C990.765564,266.127625 992.986877,266.127625 995.681946,266.127625   C995.681946,262.988434 995.681946,260.195465 995.682190,256.429810  M725.372986,263.912964   C725.969849,264.750488 726.550964,266.303192 727.165955,266.316772   C734.732788,266.483673 742.304504,266.425507 749.906189,266.425507   C749.906189,263.961823 749.906189,262.205872 749.906189,259.991516   C744.250366,259.991516 738.833069,259.991516 732.918030,259.991516   C732.918030,250.483032 732.918030,241.421234 732.918030,232.303253   C730.181030,232.303253 727.967712,232.303253 725.364502,232.303253   C725.364502,242.768677 725.364502,252.892548 725.372986,263.912964  M1069.660156,243.513657   C1069.660156,250.948380 1069.660156,258.383118 1069.660156,265.935852   C1078.161987,265.935852 1086.034668,265.935852 1094.193115,265.935852   C1094.097290,263.814850 1094.019043,262.081390 1093.920410,259.897034   C1088.092896,259.897034 1082.680176,259.897034 1076.788940,259.897034   C1076.788940,250.362915 1076.788940,241.293625 1076.788940,232.297394   C1074.196167,232.297394 1072.111084,232.297394 1069.659912,232.297394   C1069.659912,235.912964 1069.659912,239.215698 1069.660156,243.513657  M704.991150,242.524689   C704.991150,239.094879 704.991150,235.665070 704.991150,232.288666   C702.283813,232.288666 700.209045,232.288666 698.051758,232.288666   C698.051758,243.657013 698.051758,254.714920 698.051758,266.038055   C700.364990,266.038055 702.426147,266.038055 704.991150,266.038055   C704.991150,258.393799 704.991150,250.956345 704.991150,242.524689  z"/>
</svg>
